<mxfile host="Electron" modified="2023-08-20T14:11:41.936Z" agent="Mozilla/5.0 (X11; Linux x86_64) AppleWebKit/537.36 (KHTML, like Gecko) draw.io/21.6.8 Chrome/114.0.5735.134 Electron/25.5.0 Safari/537.36" etag="caWYAUC9pEqwvBXeyV-j" version="21.6.8" type="device">
  <diagram name="Page-1" id="q0epeTYL6LflkRz67eNL">
    <mxGraphModel dx="1100" dy="820" grid="1" gridSize="10" guides="1" tooltips="1" connect="1" arrows="1" fold="1" page="1" pageScale="1" pageWidth="850" pageHeight="1100" math="0" shadow="0">
      <root>
        <mxCell id="0" />
        <mxCell id="1" parent="0" />
      </root>
    </mxGraphModel>
  </diagram>
</mxfile>
